<?xml version="1.0" encoding="UTF-8" standalone="no"?>
<!-- Generator: Adobe Illustrator 21.0.0, SVG Export Plug-In . SVG Version: 6.00 Build 0)  -->

<svg
   xmlns:dc="http://purl.org/dc/elements/1.1/"
   xmlns:cc="http://creativecommons.org/ns#"
   xmlns:rdf="http://www.w3.org/1999/02/22-rdf-syntax-ns#"
   xmlns:svg="http://www.w3.org/2000/svg"
   xmlns="http://www.w3.org/2000/svg"
   xmlns:sodipodi="http://sodipodi.sourceforge.net/DTD/sodipodi-0.dtd"
   xmlns:inkscape="http://www.inkscape.org/namespaces/inkscape"
   version="1.1"
   id="Layer_1"
   x="0px"
   y="0px"
   viewBox="0 0 173.6 146.6"
   style="enable-background:new 0 0 173.6 146.6;"
   xml:space="preserve"
   sodipodi:docname="riot_logo.svg"
   inkscape:version="0.92.2 2405546, 2018-03-11"><metadata
   id="metadata270"><rdf:RDF><cc:Work
       rdf:about=""><dc:format>image/svg+xml</dc:format><dc:type
         rdf:resource="http://purl.org/dc/dcmitype/StillImage" /><dc:title>New_logo</dc:title></cc:Work></rdf:RDF></metadata><defs
   id="defs268">
	
	
	
	
	
	
	
	
	
	
	
	

	
	
	
	
	
	
	
	
	
	

		
	
		
	
		
	
		
	
		
	
		
	</defs><sodipodi:namedview
   pagecolor="#ffffff"
   bordercolor="#666666"
   borderopacity="1"
   objecttolerance="10"
   gridtolerance="10"
   guidetolerance="10"
   inkscape:pageopacity="0"
   inkscape:pageshadow="2"
   inkscape:window-width="2560"
   inkscape:window-height="1384"
   id="namedview266"
   showgrid="false"
   inkscape:zoom="2.0515006"
   inkscape:cx="84.069126"
   inkscape:cy="-3.8378463"
   inkscape:window-x="0"
   inkscape:window-y="56"
   inkscape:window-maximized="0"
   inkscape:current-layer="Layer_1" />
<style
   type="text/css"
   id="style203">
	.st0{fill:#7DC8A2;}
	.st1{fill:#AFDBC5;}
	.st2{fill:#764D80;}
	.st3{enable-background:new    ;}
	.st4{fill:none;stroke:#764D80;stroke-miterlimit:10;}
</style>
<title
   id="title205">New_logo</title>

<g
   id="g919"><path
     class="st0"
     d="M 62.3,0 H 21.2 C 9.9,0 0.7,9.2 0.7,20.6 v 102.8 c 0,11.4 9.2,20.6 20.6,20.6 11.3,0 20.5,-9.2 20.6,-20.6 v -20.6 h 20.5 c 28.4,0 51.4,-23 51.4,-51.4 C 113.8,23 90.7,0 62.3,0 Z"
     id="path207"
     inkscape:connector-curvature="0"
     style="fill:#7dc8a2" /><path
     class="st1"
     d="m 21.2,138.8 c -8.5,0 -15.4,-6.9 -15.4,-15.4 V 20.6 C 5.8,12.1 12.6,5.3 21.1,5.2 h 41.2 c 25.5,0.4 46,21.4 45.6,46.9 -0.4,25 -20.6,45.2 -45.6,45.6 H 36.6 v 25.7 c 0,8.5 -6.9,15.4 -15.4,15.4 z"
     id="path209"
     inkscape:connector-curvature="0"
     style="fill:#afdbc5" /><path
     class="st0"
     d="m 21.2,133.7 c -5.7,0 -10.3,-4.6 -10.3,-10.3 V 20.6 C 10.9,15 15.4,10.4 21,10.3 h 41.3 c 22.7,0 41.1,18.4 41.1,41.1 0,22.7 -18.3,41.1 -41,41.1 H 31.5 v 30.8 c 0,5.8 -4.6,10.4 -10.3,10.4 z"
     id="path211"
     inkscape:connector-curvature="0"
     style="fill:#7dc8a2" /><path
     class="st1"
     d="m 21.2,128.6 c -2.9,0 -5.2,-2.3 -5.2,-5.2 V 20.6 c 0,-2.8 2.2,-5.1 5,-5.2 h 41.3 c 19.9,0 36,16.1 36,36 0,19.9 -16.1,36 -36,36 h -36 v 36 c 0.1,2.9 -2.2,5.2 -5.1,5.2 z"
     id="path213"
     inkscape:connector-curvature="0"
     style="fill:#afdbc5" /><path
     class="st0"
     d="m 21.3,82.3 h 41.1 c 17.1,0 30.9,-13.8 30.9,-30.9 0,-17.1 -13.9,-30.9 -31,-30.9 H 21.2 Z"
     id="path215"
     inkscape:connector-curvature="0"
     style="fill:#7dc8a2" /><path
     class="st1"
     d="M 26.4,77.2 V 25.7 h 36 C 76.6,26 87.9,37.7 87.6,52 87.3,65.8 76.2,77 62.4,77.2 Z"
     id="path217"
     inkscape:connector-curvature="0"
     style="fill:#afdbc5" /><path
     class="st0"
     d="M 31.5,72 V 30.8 h 30.8 c 11.4,0.3 20.4,9.7 20.2,21.1 -0.2,11 -9.1,19.9 -20.2,20.2 H 31.5 Z"
     id="path219"
     inkscape:connector-curvature="0"
     style="fill:#7dc8a2" /><path
     class="st1"
     d="m 36.6,66.9 v -31 h 25.7 c 8.6,0 15.5,6.9 15.5,15.5 0,8.6 -6.9,15.5 -15.5,15.5 z"
     id="path221"
     inkscape:connector-curvature="0"
     style="fill:#afdbc5" /><path
     class="st0"
     d="M 41.8,61.8 V 41.1 h 20.6 c 5.7,0 10.4,4.7 10.3,10.4 0,5.7 -4.6,10.3 -10.3,10.3 z"
     id="path223"
     inkscape:connector-curvature="0"
     style="fill:#7dc8a2" /><path
     class="st1"
     d="M 46.9,56.6 V 46.2 h 15.5 c 2.9,0 5.2,2.3 5.2,5.2 0,2.9 -2.3,5.2 -5.2,5.2 z"
     id="path225"
     inkscape:connector-curvature="0"
     style="fill:#afdbc5" /><circle
     transform="rotate(-34.99953)"
     class="st2"
     cx="5.0818357"
     cy="28.673691"
     id="ellipse227"
     r="20.601088"
     style="fill:#764d80;stroke-width:1.00005281" /><path
     class="st2"
     d="m 109.3,111.6 c 6.7,9.2 4.6,22 -4.6,28.7 -9.2,6.7 -22,4.6 -28.7,-4.6 -0.1,-0.2 -0.3,-0.4 -0.4,-0.6 l -30.8,-44 c -6.5,-9.3 -4.3,-22.1 5,-28.6 9.3,-6.5 22.1,-4.3 28.6,5 z"
     id="path229"
     inkscape:connector-curvature="0"
     style="fill:#764d80" /><path
     style="fill:#764d80"
     inkscape:connector-curvature="0"
     class="st2"
     d="m 145.3,32.7 h 16.4 c 0.9,0 1.6,-0.7 1.6,-1.6 0,-0.9 -0.7,-1.6 -1.6,-1.6 h -16.4 c -0.9,0 -1.6,0.7 -1.6,1.6 0,0.9 0.7,1.6 1.6,1.6 z"
     id="path232" /><path
     style="fill:#764d80"
     inkscape:connector-curvature="0"
     class="st2"
     d="m 145.3,3.3 h 4.9 v 5 0 l -5.8,4 c -0.7,0.5 -0.9,1.5 -0.4,2.3 0.5,0.7 1.5,0.9 2.3,0.4 l 4.6,-3.2 c 1.6,3.2 5.5,4.6 8.8,3 2.2,-1.1 3.7,-3.4 3.6,-5.9 v -7.2 0 c 0,-0.9 -0.7,-1.6 -1.6,-1.6 v 0 h -16.4 c -0.9,0 -1.6,0.7 -1.6,1.6 0,0.9 0.7,1.6 1.6,1.6 z M 160,8.9 c 0,1.8 -1.5,3.3 -3.3,3.3 -1.8,0 -3.3,-1.5 -3.3,-3.3 V 3.3 h 6.5 v 5.6 z"
     id="path234" /><path
     style="fill:#764d80"
     inkscape:connector-curvature="0"
     class="st2"
     d="m 161.7,75.6 c -0.9,0 -1.6,0.7 -1.6,1.6 v 0 4.9 h -14.7 c -0.9,0 -1.6,0.7 -1.6,1.6 v 0 0 c 0,0.9 0.7,1.6 1.6,1.6 v 0 H 160 v 5 c 0,0.9 0.7,1.6 1.6,1.6 0.9,0 1.6,-0.7 1.6,-1.6 v -6.6 0 -6.5 c 0.2,-0.8 -0.6,-1.5 -1.5,-1.6 0,0 0,0 0,0 z"
     id="path236" /><path
     style="fill:#764d80"
     inkscape:connector-curvature="0"
     class="st2"
     d="m 153.5,46.4 c -5.5,0 -10,4.5 -10,10 0,5.5 4.5,10 10,10 5.5,0 10,-4.5 10,-10 0,-5.5 -4.4,-10 -10,-10 z m 0,16.8 c -3.7,0 -6.7,-3 -6.7,-6.7 0,-3.7 3,-6.7 6.7,-6.7 3.7,0 6.7,3 6.7,6.7 v 0 c 0,3.7 -3,6.7 -6.7,6.7 z"
     id="path238" /><path
     id="path240"
     d="m 145.2,109 h 16.5 c 0.3,0 0.5,0.1 0.7,0.3 0.2,0.2 0.3,0.4 0.3,0.7 0,0.3 -0.1,0.5 -0.3,0.7 -0.2,0.2 -0.5,0.3 -0.7,0.3 h -16.5 c -0.3,0 -0.5,-0.1 -0.7,-0.3 -0.2,-0.2 -0.3,-0.4 -0.3,-0.7 0,-0.3 0.1,-0.5 0.3,-0.7 0.2,-0.2 0.4,-0.3 0.7,-0.3 z"
     class="st2"
     inkscape:connector-curvature="0"
     style="fill:#764d80" /><path
     id="path244"
     d="m 145.2,109 h 16.5 c 0.3,0 0.5,0.1 0.7,0.3 0.2,0.2 0.3,0.4 0.3,0.7 0,0.3 -0.1,0.5 -0.3,0.7 -0.2,0.2 -0.5,0.3 -0.7,0.3 h -16.5 c -0.3,0 -0.5,-0.1 -0.7,-0.3 -0.2,-0.2 -0.3,-0.4 -0.3,-0.7 0,-0.3 0.1,-0.5 0.3,-0.7 0.2,-0.2 0.4,-0.3 0.7,-0.3 z"
     class="st4"
     inkscape:connector-curvature="0"
     style="fill:none;stroke:#764d80;stroke-miterlimit:10" /><path
     id="path248"
     d="m 145.2,126 h 16.5 c 0.3,0 0.5,0.1 0.7,0.3 0.2,0.2 0.3,0.4 0.3,0.7 v 0.2 c 0,0.4 -0.2,0.7 -0.5,1 l -9.8,6.5 9.8,6.5 c 0.4,0.2 0.5,0.5 0.5,1 v 0.2 c 0,0.3 -0.1,0.5 -0.3,0.7 -0.2,0.2 -0.4,0.3 -0.7,0.3 h -16.5 c -0.3,0 -0.5,-0.1 -0.7,-0.3 -0.2,-0.2 -0.3,-0.4 -0.3,-0.7 0,-0.3 0.1,-0.5 0.3,-0.7 0.2,-0.2 0.5,-0.3 0.7,-0.3 h 13.7 l -8.6,-5.9 c -0.3,-0.2 -0.5,-0.5 -0.5,-0.9 0,-0.3 0.2,-0.6 0.5,-0.9 l 8.6,-5.8 h -13.7 c -0.3,0 -0.5,-0.1 -0.7,-0.3 -0.2,-0.2 -0.3,-0.4 -0.3,-0.7 0,-0.3 0.1,-0.5 0.3,-0.7 0.2,-0.1 0.4,-0.2 0.7,-0.2 z"
     class="st2"
     inkscape:connector-curvature="0"
     style="fill:#764d80" /><path
     id="path252"
     d="m 145.2,126 h 16.5 c 0.3,0 0.5,0.1 0.7,0.3 0.2,0.2 0.3,0.4 0.3,0.7 v 0.2 c 0,0.4 -0.2,0.7 -0.5,1 l -9.8,6.5 9.8,6.5 c 0.4,0.2 0.5,0.5 0.5,1 v 0.2 c 0,0.3 -0.1,0.5 -0.3,0.7 -0.2,0.2 -0.4,0.3 -0.7,0.3 h -16.5 c -0.3,0 -0.5,-0.1 -0.7,-0.3 -0.2,-0.2 -0.3,-0.4 -0.3,-0.7 0,-0.3 0.1,-0.5 0.3,-0.7 0.2,-0.2 0.5,-0.3 0.7,-0.3 h 13.7 l -8.6,-5.9 c -0.3,-0.2 -0.5,-0.5 -0.5,-0.9 0,-0.3 0.2,-0.6 0.5,-0.9 l 8.6,-5.8 h -13.7 c -0.3,0 -0.5,-0.1 -0.7,-0.3 -0.2,-0.2 -0.3,-0.4 -0.3,-0.7 0,-0.3 0.1,-0.5 0.3,-0.7 0.2,-0.1 0.4,-0.2 0.7,-0.2 z"
     class="st4"
     inkscape:connector-curvature="0"
     style="fill:none;stroke:#764d80;stroke-miterlimit:10" /><path
     id="path256"
     d="m 152.5,98.1 c 0.3,0 0.6,0.1 0.9,0.4 0.3,0.3 0.4,0.5 0.4,0.9 0,0.3 -0.1,0.6 -0.4,0.9 -0.2,0.2 -0.5,0.4 -0.9,0.4 H 152 c -0.3,0 -0.6,-0.1 -0.9,-0.4 -0.2,-0.2 -0.4,-0.5 -0.4,-0.9 0,-0.4 0.1,-0.7 0.4,-0.9 0.3,-0.2 0.5,-0.4 0.9,-0.4 z"
     class="st2"
     inkscape:connector-curvature="0"
     style="fill:#764d80" /><path
     id="path260"
     d="m 152.5,98.1 c 0.3,0 0.6,0.1 0.9,0.4 0.3,0.3 0.4,0.5 0.4,0.9 0,0.3 -0.1,0.6 -0.4,0.9 -0.2,0.2 -0.5,0.4 -0.9,0.4 H 152 c -0.3,0 -0.6,-0.1 -0.9,-0.4 -0.2,-0.2 -0.4,-0.5 -0.4,-0.9 0,-0.4 0.1,-0.7 0.4,-0.9 0.3,-0.2 0.5,-0.4 0.9,-0.4 z"
     class="st4"
     inkscape:connector-curvature="0"
     style="fill:none;stroke:#764d80;stroke-miterlimit:10" /></g>
</svg>